STARTFONT 2.1
FONT -FontForge-ITC Benguiat Gothic Std-Bold-R-Normal--32-310-75-75-P-169-ISO8859-1
SIZE 31 75 75
FONTBOUNDINGBOX 38 37 -6 -8
COMMENT "Generated by fontforge, http://fontforge.sourceforge.net"
COMMENT "Copyright 1990, 1995 , 2002Adobe Systems Incorporated. All Rights Reserved. ITC Benguiat Gothic is a registered trademark of International Typeface Corporation."
STARTPROPERTIES 40
FOUNDRY "FontForge"
FAMILY_NAME "ITC Benguiat Gothic Std"
WEIGHT_NAME "Bold"
SLANT "R"
SETWIDTH_NAME "Normal"
ADD_STYLE_NAME ""
PIXEL_SIZE 32
POINT_SIZE 310
RESOLUTION_X 75
RESOLUTION_Y 75
SPACING "P"
AVERAGE_WIDTH 169
CHARSET_REGISTRY "ISO8859"
CHARSET_ENCODING "1"
FONTNAME_REGISTRY ""
CHARSET_COLLECTIONS "ISOLatin1Encoding"
FONT_NAME "BenguiatGothicStd-Bold"
FACE_NAME "ITC Benguiat Gothic Std Bold"
COPYRIGHT "Copyright 1990, 1995 , 2002Adobe Systems Incorporated. All Rights Reserved. ITC Benguiat Gothic is a registered trademark of International Typeface Corporation."
FONT_VERSION "001.001"
FONT_ASCENT 22
FONT_DESCENT 10
UNDERLINE_POSITION -3
UNDERLINE_THICKNESS 2
X_HEIGHT 15
CAP_HEIGHT 21
RAW_ASCENT 691
RAW_DESCENT 309
NORM_SPACE 10
RELATIVE_WEIGHT 70
RELATIVE_SETWIDTH 50
SUPERSCRIPT_X 0
SUPERSCRIPT_Y 11
SUPERSCRIPT_SIZE 19
SUBSCRIPT_X 0
SUBSCRIPT_Y 2
SUBSCRIPT_SIZE 19
FIGURE_WIDTH 20
AVG_LOWERCASE_WIDTH 165
AVG_UPPERCASE_WIDTH 194
ENDPROPERTIES
CHARS 253
STARTCHAR space
ENCODING 32
SWIDTH 305 0
DWIDTH 10 0
BBX 1 1 0 0
BITMAP
00
ENDCHAR
STARTCHAR exclam
ENCODING 33
SWIDTH 333 0
DWIDTH 11 0
BBX 5 22 3 0
BITMAP
70
F0
F8
F8
F8
F0
F0
F0
F0
F0
F0
F0
F0
F0
70
20
00
70
F0
F8
F0
70
ENDCHAR
STARTCHAR quotedbl
ENCODING 34
SWIDTH 333 0
DWIDTH 11 0
BBX 9 9 1 13
BITMAP
E300
E780
E780
E780
E780
E780
E780
E780
E300
ENDCHAR
STARTCHAR numbersign
ENCODING 35
SWIDTH 611 0
DWIDTH 20 0
BBX 16 22 2 0
BITMAP
071C
071C
0E1C
0E1C
0E38
0E38
7FFF
7FFF
7FFF
1C38
1C38
1C70
1C70
FFFE
FFFE
FFFE
3C70
3870
38F0
38E0
38E0
38E0
ENDCHAR
STARTCHAR dollar
ENCODING 36
SWIDTH 611 0
DWIDTH 20 0
BBX 17 27 1 -3
BITMAP
03C000
03C000
03C000
03C000
1FFE00
3FFE00
7FFE00
F80000
F00000
FC0000
7FF800
3FFE00
0FFF00
03DF80
03C780
03C780
03C780
03CF80
3FFF00
FFFF00
FFFE00
7FF000
03C000
03C000
03C000
03C000
008000
ENDCHAR
STARTCHAR percent
ENCODING 37
SWIDTH 944 0
DWIDTH 30 0
BBX 28 22 1 0
BITMAP
0F807000
3FC07000
7FE0F000
79F0F000
70F1E000
F0F1E000
F0F3C000
79F3C000
7FE78000
3FE78000
1F8F0000
000F1F80
001E3FC0
001E7FE0
003CF9E0
003CF0F0
0078F0F0
0078F0F0
00F079E0
00F07FE0
00E03FC0
00E01F00
ENDCHAR
STARTCHAR ampersand
ENCODING 38
SWIDTH 778 0
DWIDTH 25 0
BBX 23 22 1 0
BITMAP
03F000
07F800
0FFC00
1FFE00
1F1E00
1E1E60
1F1EF0
0F3CF0
1FFC70
3FF878
7FF078
79F878
F87CF0
F03EF0
F01FF0
F80FE0
F807E0
7C0FF0
7FFFF8
3FFF7E
1FFE3E
03F81C
ENDCHAR
STARTCHAR quotesingle
ENCODING 39
SWIDTH 222 0
DWIDTH 7 0
BBX 3 9 2 13
BITMAP
E0
E0
E0
E0
E0
E0
E0
E0
E0
ENDCHAR
STARTCHAR parenleft
ENCODING 40
SWIDTH 389 0
DWIDTH 12 0
BBX 9 29 2 -7
BITMAP
0380
0780
0F80
1F00
1E00
3C00
3C00
7800
7800
F800
F000
F000
F000
F000
F000
F000
F000
F000
F000
F800
7800
7800
3C00
3C00
1E00
1F00
0F80
0780
0380
ENDCHAR
STARTCHAR parenright
ENCODING 41
SWIDTH 389 0
DWIDTH 12 0
BBX 10 29 1 -7
BITMAP
6000
F000
F800
7C00
3E00
1E00
0F00
0F00
0F80
0780
0780
0780
07C0
03C0
03C0
03C0
07C0
0780
0780
0780
0F80
0F00
0F00
1E00
3E00
7C00
F800
F000
6000
ENDCHAR
STARTCHAR asterisk
ENCODING 42
SWIDTH 444 0
DWIDTH 14 0
BBX 10 11 2 11
BITMAP
0C00
0E00
CCC0
EDC0
FFC0
0E00
7F80
FDC0
EDC0
0E00
0C00
ENDCHAR
STARTCHAR plus
ENCODING 43
SWIDTH 600 0
DWIDTH 19 0
BBX 17 16 1 0
BITMAP
01C000
01C000
01C000
01C000
01C000
01C000
01C000
FFFF80
FFFF80
FFFF80
01C000
01C000
01C000
01C000
01C000
01C000
ENDCHAR
STARTCHAR comma
ENCODING 44
SWIDTH 305 0
DWIDTH 10 0
BBX 5 9 2 -3
BITMAP
38
38
78
78
F8
F0
F0
E0
E0
ENDCHAR
STARTCHAR hyphen
ENCODING 45
SWIDTH 333 0
DWIDTH 11 0
BBX 8 3 1 7
BITMAP
7F
FF
7F
ENDCHAR
STARTCHAR period
ENCODING 46
SWIDTH 305 0
DWIDTH 10 0
BBX 4 5 3 0
BITMAP
60
F0
F0
F0
E0
ENDCHAR
STARTCHAR slash
ENCODING 47
SWIDTH 278 0
DWIDTH 9 0
BBX 11 22 -1 0
BITMAP
00C0
01E0
01E0
03C0
03C0
03C0
0780
0780
0F00
0F00
0F00
1E00
1E00
3E00
3C00
3C00
7800
7800
7800
F000
F000
6000
ENDCHAR
STARTCHAR zero
ENCODING 48
SWIDTH 611 0
DWIDTH 20 0
BBX 18 22 1 0
BITMAP
03F000
0FFC00
1FFE00
3FFE00
7E1F00
7C0F00
780F80
F80780
F00780
F00780
F007C0
F007C0
F00780
F00780
F80780
780F80
7C0F80
7E1F00
3FFE00
1FFE00
0FFC00
03F000
ENDCHAR
STARTCHAR one
ENCODING 49
SWIDTH 611 0
DWIDTH 20 0
BBX 15 22 3 0
BITMAP
0380
3FC0
FFC0
FFC0
7FC0
07C0
07C0
07C0
07C0
07C0
07C0
07C0
07C0
07C0
07C0
07C0
07C0
07C0
3FFC
FFFE
FFFE
7FFE
ENDCHAR
STARTCHAR two
ENCODING 50
SWIDTH 611 0
DWIDTH 20 0
BBX 17 22 1 0
BITMAP
3FF800
7FFE00
7FFF00
3FFF00
001F00
000F80
000F00
001F00
003F00
00FE00
01FC00
07F800
1FE000
3FC000
7F0000
7C0000
F80000
F80000
FFFF00
FFFF80
FFFF80
7FFF80
ENDCHAR
STARTCHAR three
ENCODING 51
SWIDTH 611 0
DWIDTH 20 0
BBX 18 22 1 0
BITMAP
7FFE00
7FFF00
7FFF00
3FFE00
00FC00
03F000
0FC000
1FF000
3FFC00
1FFF00
007F00
000F80
000780
0007C0
0007C0
0007C0
000780
000F80
7FFF00
FFFF00
FFFC00
7FF000
ENDCHAR
STARTCHAR four
ENCODING 52
SWIDTH 611 0
DWIDTH 20 0
BBX 19 22 0 0
BITMAP
003C00
00FE00
01FE00
03FE00
07DE00
0F9E00
1F1E00
1E1E00
3C1E00
3C1E00
781E00
781E00
781E00
7FFFC0
FFFFE0
7FFFE0
7FFFE0
001E00
001E00
001E00
001E00
000E00
ENDCHAR
STARTCHAR five
ENCODING 53
SWIDTH 611 0
DWIDTH 20 0
BBX 18 22 1 0
BITMAP
3FFE00
3FFE00
3FFE00
3FFC00
7C0000
7C0000
7F8000
7FF800
7FFE00
3FFF00
003F80
000F80
0007C0
0007C0
0007C0
0007C0
0007C0
000F80
3FFF80
FFFF00
FFFE00
7FF000
ENDCHAR
STARTCHAR six
ENCODING 54
SWIDTH 611 0
DWIDTH 20 0
BBX 18 22 1 0
BITMAP
03FF00
0FFF80
1FFF80
3FFE00
3E0000
7C0000
78F000
FBFC00
FFFE00
FFFF00
FE1F80
FC0F80
F807C0
F807C0
F807C0
F807C0
7C0780
7C0F80
3FFF00
1FFE00
0FFC00
03F000
ENDCHAR
STARTCHAR seven
ENCODING 55
SWIDTH 611 0
DWIDTH 20 0
BBX 16 22 2 0
BITMAP
7FFE
FFFF
FFFF
001F
001E
001E
003E
007C
007C
00F8
01F0
03E0
03E0
07C0
0780
0F80
0F00
0F00
0F00
0F00
0F00
0700
ENDCHAR
STARTCHAR eight
ENCODING 56
SWIDTH 611 0
DWIDTH 20 0
BBX 18 22 1 0
BITMAP
07F000
1FFC00
3FFE00
3FFF00
7C1F00
7C0F80
7C0F80
7E1F00
3FFE00
1FFC00
3FFF00
7FFF80
FC0F80
F807C0
F007C0
F007C0
F807C0
FC1F80
7FFF80
3FFF00
1FFE00
07F000
ENDCHAR
STARTCHAR nine
ENCODING 57
SWIDTH 611 0
DWIDTH 20 0
BBX 17 22 1 0
BITMAP
07F000
1FFC00
3FFE00
7FFF00
7C1F00
F80F80
F00F80
F00780
F00780
F80F80
F80F80
7C3F80
7FFF80
3FFF80
1FF780
030F80
000F00
001F00
3FFE00
7FFC00
7FF800
7FE000
ENDCHAR
STARTCHAR colon
ENCODING 58
SWIDTH 305 0
DWIDTH 10 0
BBX 4 14 3 0
BITMAP
E0
F0
F0
F0
40
00
00
00
00
60
F0
F0
F0
E0
ENDCHAR
STARTCHAR semicolon
ENCODING 59
SWIDTH 305 0
DWIDTH 10 0
BBX 6 17 1 -3
BITMAP
10
38
7C
7C
38
00
00
00
08
3C
3C
3C
78
78
78
F0
70
ENDCHAR
STARTCHAR less
ENCODING 60
SWIDTH 600 0
DWIDTH 19 0
BBX 17 16 1 0
BITMAP
000180
000780
003F80
00FF80
07FC00
1FE000
FF8000
FC0000
FC0000
FF8000
1FE000
07FC00
00FF00
003F80
000780
000180
ENDCHAR
STARTCHAR equal
ENCODING 61
SWIDTH 600 0
DWIDTH 19 0
BBX 17 10 1 3
BITMAP
FFFF80
FFFF80
FFFF80
000000
000000
000000
000000
FFFF80
FFFF80
FFFF80
ENDCHAR
STARTCHAR greater
ENCODING 62
SWIDTH 600 0
DWIDTH 19 0
BBX 17 16 1 0
BITMAP
C00000
F00000
FE0000
7F8000
1FF000
03FC00
00FF80
001F80
001F80
007F80
03FE00
1FF000
7F8000
FE0000
F00000
C00000
ENDCHAR
STARTCHAR question
ENCODING 63
SWIDTH 500 0
DWIDTH 16 0
BBX 14 22 1 0
BITMAP
FFE0
FFF0
FFF8
7FFC
007C
007C
0078
00F8
03F0
07E0
0FC0
0F00
1F00
1E00
0E00
0000
0000
0E00
1E00
1F00
1E00
0E00
ENDCHAR
STARTCHAR at
ENCODING 64
SWIDTH 800 0
DWIDTH 26 0
BBX 23 22 1 0
BITMAP
007F00
03FFC0
07C3F0
0F0078
1C003C
383C1C
78FECE
71FFCE
73C3CE
7383CE
F381CE
F7818E
77838C
77838C
73C798
7BFFF0
39FBE0
1C7380
1F0038
07E1F0
03FFE0
007F00
ENDCHAR
STARTCHAR A
ENCODING 65
SWIDTH 667 0
DWIDTH 21 0
BBX 19 22 1 0
BITMAP
00E000
01F000
03F800
07FC00
07BC00
0FBE00
0F1E00
1E1F00
1E0F00
3E0F00
3FE780
3FFF80
7FFFC0
787FC0
780FC0
F807E0
F003E0
F001E0
F001E0
F001E0
F001E0
E000E0
ENDCHAR
STARTCHAR B
ENCODING 66
SWIDTH 611 0
DWIDTH 20 0
BBX 17 22 2 0
BITMAP
7FF800
FFFE00
FFFE00
F07E00
F01E00
F01E00
F01E00
FF3E00
FFFC00
FFF800
F1FC00
F07E00
F01F00
F00F00
F00F00
F00F80
F00F00
F00F00
FFFF00
FFFE00
FFFC00
7FF800
ENDCHAR
STARTCHAR C
ENCODING 67
SWIDTH 611 0
DWIDTH 20 0
BBX 18 22 1 0
BITMAP
03FF80
0FFFC0
1FFF80
3FFF80
7E0000
7C0000
780000
F80000
F80000
F80000
F80000
780000
7C0000
7C0000
3E0000
3F0000
1F8000
0FF000
07FF80
03FFC0
00FFC0
003F80
ENDCHAR
STARTCHAR D
ENCODING 68
SWIDTH 667 0
DWIDTH 21 0
BBX 18 22 2 0
BITMAP
7F0000
FFE000
FFF800
FFFC00
F0FE00
F03F00
F01F00
F00F80
F00F80
F007C0
F007C0
F007C0
F003C0
F003C0
F003C0
F007C0
F007C0
F01F80
FFFF80
FFFF00
FFFE00
7FF800
ENDCHAR
STARTCHAR E
ENCODING 69
SWIDTH 556 0
DWIDTH 18 0
BBX 14 22 2 0
BITMAP
7FFC
FFFC
FFFC
FFF8
F000
F000
FFF8
FFFC
FFFC
FFFC
F000
F000
F000
F000
F000
F000
F000
F000
FFF8
FFFC
FFFC
7FFC
ENDCHAR
STARTCHAR F
ENCODING 70
SWIDTH 500 0
DWIDTH 16 0
BBX 14 22 2 0
BITMAP
7FF8
FFFC
FFFC
FFF0
F000
F000
FFF0
FFF8
FFF8
FFF8
F000
F000
F000
F000
F000
F000
F000
F000
F000
F000
F000
7000
ENDCHAR
STARTCHAR G
ENCODING 71
SWIDTH 722 0
DWIDTH 23 0
BBX 20 22 1 0
BITMAP
03FFE0
0FFFE0
1FFFE0
3FFFC0
7E0000
7C0000
F81FE0
F83FF0
F83FF0
F83FF0
F800F0
F800F0
7800F0
7C00F0
7E00F0
3F00F0
1F80F0
0FF0F0
07FFF0
03FFF0
00FFF0
000FE0
ENDCHAR
STARTCHAR H
ENCODING 72
SWIDTH 611 0
DWIDTH 20 0
BBX 16 22 2 0
BITMAP
600E
F00E
F01F
F01F
F01F
F01F
F01F
FFFF
FFFF
FFFF
F01F
F01F
F01F
F01F
F01F
F01F
F01F
F01F
F01F
F01F
F00E
600E
ENDCHAR
STARTCHAR I
ENCODING 73
SWIDTH 278 0
DWIDTH 9 0
BBX 4 22 2 0
BITMAP
70
F0
F0
F0
F0
F0
F0
F0
F0
F0
F0
F0
F0
F0
F0
F0
F0
F0
F0
F0
F0
70
ENDCHAR
STARTCHAR J
ENCODING 74
SWIDTH 444 0
DWIDTH 14 0
BBX 12 22 0 0
BITMAP
0060
00F0
00F0
00F0
00F0
00F0
00F0
00F0
00F0
00F0
00F0
00F0
00F0
00F0
00F0
00F0
00F0
E1F0
FFF0
FFE0
FFC0
3F00
ENDCHAR
STARTCHAR K
ENCODING 75
SWIDTH 611 0
DWIDTH 20 0
BBX 17 22 2 0
BITMAP
700E00
F00F00
F01F00
F01E00
F03E00
F07C00
F0F800
FFF000
FFE000
FFF000
F1F800
F07C00
F03E00
F01E00
F00F00
F00F00
F00F80
F00780
F00780
F00780
F00780
700300
ENDCHAR
STARTCHAR L
ENCODING 76
SWIDTH 444 0
DWIDTH 14 0
BBX 13 22 2 0
BITMAP
7000
F000
F000
F000
F000
F000
F000
F000
F000
F000
F000
F000
F000
F000
F000
F000
F000
F000
FFF0
FFF8
FFF8
7FF0
ENDCHAR
STARTCHAR M
ENCODING 77
SWIDTH 722 0
DWIDTH 23 0
BBX 19 22 2 0
BITMAP
380380
7C07C0
7E0FC0
7E0FC0
7F0FC0
7F1FC0
F79DE0
F7BDE0
F3F9E0
F3F9E0
F1F1E0
F0F1E0
F041E0
F001E0
F001E0
F001E0
F001E0
F001E0
F001E0
F001E0
F000E0
E000E0
ENDCHAR
STARTCHAR N
ENCODING 78
SWIDTH 611 0
DWIDTH 20 0
BBX 16 22 2 0
BITMAP
700E
F80E
FC1F
FE1F
FF1F
FF9F
F7FF
F3FF
F0FF
F07F
F01F
F01F
F01F
F01F
F01F
F01F
F01F
F01F
F01F
F01F
F00E
600E
ENDCHAR
STARTCHAR O
ENCODING 79
SWIDTH 722 0
DWIDTH 23 0
BBX 21 22 1 0
BITMAP
01FC00
07FF00
0FFF80
1FFFC0
3F07E0
7E01F0
7C01F0
7800F0
F800F8
F800F8
F800F8
F800F8
F800F8
F800F8
7800F0
7C01F0
7E01F0
3F07E0
1FFFC0
0FFF80
07FF00
01FC00
ENDCHAR
STARTCHAR P
ENCODING 80
SWIDTH 556 0
DWIDTH 18 0
BBX 16 22 2 0
BITMAP
7FF8
FFFE
FFFE
F07F
F00F
F01F
F01E
F07E
F1FC
FFF8
FFF0
FFC0
FE00
F000
F000
F000
F000
F000
F000
F000
F000
7000
ENDCHAR
STARTCHAR Q
ENCODING 81
SWIDTH 722 0
DWIDTH 23 0
BBX 21 27 1 -5
BITMAP
01FC00
07FF00
0FFF80
1FFFC0
3F07E0
7E01F0
7C01F0
7800F0
F800F8
F800F8
F800F8
F800F8
F840F8
F9F0F8
79F8F0
7DFDF0
7E3FF0
3F1FE0
1FFFC0
0FFF80
07FF00
01FF00
0007C0
0007F8
0003F8
0001F8
000060
ENDCHAR
STARTCHAR R
ENCODING 82
SWIDTH 611 0
DWIDTH 20 0
BBX 17 22 2 0
BITMAP
7FF800
FFFC00
FFFE00
FFFF00
F01F00
F01E00
F01E00
FFFE00
FFFC00
FFF800
F1FC00
F07C00
F03E00
F01F00
F00F00
F00F00
F00F80
F00780
F00780
F00780
F00780
600300
ENDCHAR
STARTCHAR S
ENCODING 83
SWIDTH 611 0
DWIDTH 20 0
BBX 17 22 1 0
BITMAP
0FFE00
3FFE00
7FFE00
FFFC00
F80000
F80000
FC0000
7FE000
7FFC00
1FFE00
03FF00
001F80
000F80
000780
000780
000780
000780
001F80
7FFF00
FFFE00
FFFC00
FFF000
ENDCHAR
STARTCHAR T
ENCODING 84
SWIDTH 500 0
DWIDTH 16 0
BBX 16 22 0 0
BITMAP
7FFE
FFFF
FFFF
7FFE
03C0
03C0
03C0
03C0
03C0
03C0
03C0
03C0
03C0
03C0
03C0
03C0
03C0
03C0
03C0
03C0
03C0
0180
ENDCHAR
STARTCHAR U
ENCODING 85
SWIDTH 611 0
DWIDTH 20 0
BBX 16 22 2 0
BITMAP
700C
701E
701E
701E
F01E
F01E
F01E
F01E
F00E
F00F
F00F
F00F
F00F
F00F
F00F
F00F
F01F
F83E
7FFE
7FFC
1FF8
07E0
ENDCHAR
STARTCHAR V
ENCODING 86
SWIDTH 611 0
DWIDTH 20 0
BBX 18 22 1 0
BITMAP
700380
F00780
F007C0
F00780
F80780
F80780
F80780
780F80
780F80
780F00
3C0F00
3C1F00
3C1E00
3E1E00
1E3E00
1F3C00
0F7C00
0FF800
07F800
07F000
03F000
01E000
ENDCHAR
STARTCHAR W
ENCODING 87
SWIDTH 833 0
DWIDTH 27 0
BBX 25 22 1 0
BITMAP
601C0700
F03C0780
F03C0780
F03C0F80
F03E0F00
F03E0F00
F03E0F00
783E0F00
783E0F00
787E0F00
787E0E00
787F1E00
38771E00
3CF71E00
3CF79C00
3CE7BC00
1FE3FC00
1FE3F800
1FC3F800
0FC1F800
0F81F000
0700E000
ENDCHAR
STARTCHAR X
ENCODING 88
SWIDTH 611 0
DWIDTH 20 0
BBX 18 22 1 0
BITMAP
700700
780780
780F80
7C0F80
7E1F00
3F3E00
1FFC00
0FF800
03F000
07F800
0FFC00
1F3E00
3E1E00
7C1F00
7C0F80
F80F80
F80780
F007C0
F007C0
F003C0
F003C0
E00380
ENDCHAR
STARTCHAR Y
ENCODING 89
SWIDTH 556 0
DWIDTH 18 0
BBX 16 22 1 0
BITMAP
E007
F00F
F00F
F00F
F81F
781E
7C3E
3E7C
1FF8
1FF0
0FE0
07C0
03C0
03C0
03C0
03C0
03C0
03C0
03C0
03C0
03C0
0380
ENDCHAR
STARTCHAR Z
ENCODING 90
SWIDTH 500 0
DWIDTH 16 0
BBX 14 22 1 0
BITMAP
7FF8
7FFC
7FFC
3FFC
003C
007C
0078
00F8
01F0
03E0
07C0
0FC0
1F80
3E00
7C00
7800
F800
F000
FFF8
FFFC
FFFC
7FFC
ENDCHAR
STARTCHAR bracketleft
ENCODING 91
SWIDTH 389 0
DWIDTH 12 0
BBX 9 29 2 -7
BITMAP
7F80
FF80
FF80
F000
F000
F000
F000
F000
F000
F000
F000
F000
F000
F000
F000
F000
F000
F000
F000
F000
F000
F000
F000
F000
F000
F000
FF80
FF80
7F80
ENDCHAR
STARTCHAR backslash
ENCODING 92
SWIDTH 278 0
DWIDTH 9 0
BBX 11 22 -1 0
BITMAP
6000
F000
F000
F800
7800
7800
3C00
3C00
3E00
1E00
1E00
0F00
0F00
0F00
0780
0780
07C0
03C0
03C0
01E0
01E0
00C0
ENDCHAR
STARTCHAR bracketright
ENCODING 93
SWIDTH 389 0
DWIDTH 12 0
BBX 9 29 1 -7
BITMAP
FF00
FF80
FF80
0780
0780
0780
0780
0780
0780
0780
0780
0780
0780
0780
0780
0780
0780
0780
0780
0780
0780
0780
0780
0780
0780
0780
FF80
FF80
FF00
ENDCHAR
STARTCHAR asciicircum
ENCODING 94
SWIDTH 600 0
DWIDTH 19 0
BBX 14 12 3 10
BITMAP
0700
0F80
0F80
1FC0
1DC0
3CE0
38E0
7870
7070
F078
E038
E03C
ENDCHAR
STARTCHAR underscore
ENCODING 95
SWIDTH 500 0
DWIDTH 16 0
BBX 16 2 0 -4
BITMAP
FFFF
FFFF
ENDCHAR
STARTCHAR grave
ENCODING 96
SWIDTH 278 0
DWIDTH 9 0
BBX 9 5 0 18
BITMAP
4000
F800
FF00
7F80
0700
ENDCHAR
STARTCHAR a
ENCODING 97
SWIDTH 556 0
DWIDTH 18 0
BBX 14 16 1 0
BITMAP
3FE0
7FF8
7FFC
007C
003C
07FC
1FFC
7FFC
7C3C
F03C
F03C
F03C
F87C
7FFC
7FDC
1F9C
ENDCHAR
STARTCHAR b
ENCODING 98
SWIDTH 556 0
DWIDTH 18 0
BBX 15 22 2 0
BITMAP
6000
F000
F000
F000
F000
F000
FF00
FFC0
FFF0
FFF8
F0F8
F07C
F03C
F01E
F01E
F01E
F03E
F03C
F0FC
FFF8
FFF0
FFC0
ENDCHAR
STARTCHAR c
ENCODING 99
SWIDTH 500 0
DWIDTH 16 0
BBX 15 16 1 0
BITMAP
0FFC
3FFC
7FFC
7FF8
F800
F800
F000
F000
F000
F800
7C00
7E00
3FFC
1FFE
07FE
01FC
ENDCHAR
STARTCHAR d
ENCODING 100
SWIDTH 556 0
DWIDTH 18 0
BBX 15 22 1 0
BITMAP
001C
001E
001E
001E
001E
001E
01FE
0FFE
1FFE
3FFE
7E1E
7C1E
F81E
F01E
F01E
F01E
F01E
F81E
7E1E
3FFE
1FFE
07FC
ENDCHAR
STARTCHAR e
ENCODING 101
SWIDTH 556 0
DWIDTH 18 0
BBX 16 16 1 0
BITMAP
07E0
1FF8
3FFC
7E7E
781E
F81E
FFFF
FFFF
FFFE
F000
F800
7C00
7F80
3FFE
1FFE
07FE
ENDCHAR
STARTCHAR f
ENCODING 102
SWIDTH 333 0
DWIDTH 11 0
BBX 12 22 0 0
BITMAP
07E0
0FF0
1FE0
1FC0
1E00
1E00
FFE0
FFE0
FFE0
1E00
1E00
1E00
1E00
1E00
1E00
1E00
1E00
1E00
1E00
1E00
1C00
1C00
ENDCHAR
STARTCHAR g
ENCODING 103
SWIDTH 556 0
DWIDTH 18 0
BBX 17 23 1 -7
BITMAP
01FE00
0FFF00
1FFF00
3FBC00
7C3C00
783C00
F03C00
F03C00
F03C00
F03C00
F03C00
F83C00
7F3C00
3FFE00
3FFF00
0FFF00
000F80
000780
400F00
FEFF00
FFFE00
7FFC00
1FE000
ENDCHAR
STARTCHAR h
ENCODING 104
SWIDTH 556 0
DWIDTH 18 0
BBX 14 22 2 0
BITMAP
6000
F000
F000
F000
F000
F000
F3E0
FFF0
FFF8
FEF8
F87C
F03C
F03C
F03C
F03C
F03C
F03C
F03C
F03C
F03C
F03C
6038
ENDCHAR
STARTCHAR i
ENCODING 105
SWIDTH 278 0
DWIDTH 9 0
BBX 5 22 2 0
BITMAP
70
F0
F8
70
60
00
70
70
70
70
70
70
70
70
70
70
70
70
70
70
70
70
ENDCHAR
STARTCHAR j
ENCODING 106
SWIDTH 222 0
DWIDTH 7 0
BBX 11 29 -5 -7
BITMAP
01C0
01E0
03E0
01C0
01C0
0000
01C0
01C0
01C0
01C0
01C0
01C0
01C0
01C0
01C0
01C0
01C0
01C0
01C0
01C0
01C0
01C0
01C0
03C0
03C0
7FC0
FF80
FF80
7E00
ENDCHAR
STARTCHAR k
ENCODING 107
SWIDTH 500 0
DWIDTH 16 0
BBX 14 22 2 0
BITMAP
6000
F000
F000
F000
F000
F000
F070
F078
F0F0
F3F0
FFC0
FF00
FFC0
F3E0
F0F0
F0F8
F078
F078
F03C
F03C
F03C
6038
ENDCHAR
STARTCHAR l
ENCODING 108
SWIDTH 278 0
DWIDTH 9 0
BBX 3 22 3 0
BITMAP
E0
E0
E0
E0
E0
E0
E0
E0
E0
E0
E0
E0
E0
E0
E0
E0
E0
E0
E0
E0
E0
E0
ENDCHAR
STARTCHAR m
ENCODING 109
SWIDTH 833 0
DWIDTH 27 0
BBX 23 16 2 0
BITMAP
E7C1E0
EFE7F8
FFFFFC
FFFFFC
F87C3E
F07C1E
F0781E
F0781E
F0781E
F0781E
F0781E
F0781E
F0781E
F0781E
F0781E
E0381C
ENDCHAR
STARTCHAR n
ENCODING 110
SWIDTH 556 0
DWIDTH 18 0
BBX 14 16 2 0
BITMAP
63E0
FFF0
FFF8
FEF8
F87C
F03C
F03C
F03C
F03C
F03C
F03C
F03C
F03C
F03C
F03C
6038
ENDCHAR
STARTCHAR o
ENCODING 111
SWIDTH 556 0
DWIDTH 18 0
BBX 16 16 1 0
BITMAP
07E0
1FF8
3FFC
7FFE
783E
F81E
F00F
F00F
F00F
F00F
F81E
783E
7FFE
3FFC
1FF8
07E0
ENDCHAR
STARTCHAR p
ENCODING 112
SWIDTH 556 0
DWIDTH 18 0
BBX 15 23 2 -7
BITMAP
7F00
FFC0
FFF0
FFF8
F0FC
F07C
F03E
F01E
F01E
F01E
F01E
F03C
F3FC
FFF8
FFF0
FFC0
F000
F000
F000
F000
F000
F000
6000
ENDCHAR
STARTCHAR q
ENCODING 113
SWIDTH 556 0
DWIDTH 18 0
BBX 15 23 1 -7
BITMAP
01FC
0FFE
1FFE
3FFE
7E1E
781E
F81E
F01E
F01E
F01E
F01E
F81E
7F9E
3FFE
1FFE
07FE
001E
001E
001E
001E
001E
001E
000C
ENDCHAR
STARTCHAR r
ENCODING 114
SWIDTH 333 0
DWIDTH 11 0
BBX 9 16 2 0
BITMAP
6780
FF80
FF80
FE00
F800
F000
F000
F000
F000
F000
F000
F000
F000
F000
F000
6000
ENDCHAR
STARTCHAR s
ENCODING 115
SWIDTH 500 0
DWIDTH 16 0
BBX 14 16 1 0
BITMAP
1FF0
7FF8
FFF8
F800
F000
FE00
7FE0
3FF8
0FFC
007C
003C
003C
00FC
FFF8
FFF8
FFE0
ENDCHAR
STARTCHAR t
ENCODING 116
SWIDTH 389 0
DWIDTH 12 0
BBX 13 21 0 0
BITMAP
0C00
1E00
1E00
1E00
1E00
7FE0
FFF0
FFF0
1E00
1E00
1E00
1E00
1E00
1E00
1E00
1E00
1E00
1FE0
0FF8
0FF8
07F0
ENDCHAR
STARTCHAR u
ENCODING 117
SWIDTH 556 0
DWIDTH 18 0
BBX 14 16 2 0
BITMAP
6018
F03C
F03C
F03C
F03C
F03C
F03C
F03C
F03C
F03C
F03C
F07C
FDFC
7FFC
3FFC
1F18
ENDCHAR
STARTCHAR v
ENCODING 118
SWIDTH 500 0
DWIDTH 16 0
BBX 14 16 1 0
BITMAP
E01C
F03C
F03C
F03C
F03C
7038
7878
7878
7878
3CF0
3CF0
1FE0
1FE0
0FC0
0FC0
0780
ENDCHAR
STARTCHAR w
ENCODING 119
SWIDTH 722 0
DWIDTH 23 0
BBX 21 16 1 0
BITMAP
607030
F07078
F07878
F0F878
F0F878
F0F878
70F870
70F870
79FCF0
79DCF0
39DCE0
3FDFE0
1F8FC0
1F8FC0
0F8780
0F0780
ENDCHAR
STARTCHAR x
ENCODING 120
SWIDTH 500 0
DWIDTH 16 0
BBX 14 16 1 0
BITMAP
7038
7038
7878
7878
7CF8
3FF0
1FE0
1FE0
3FF0
7CF8
7878
F87C
F03C
F03C
F03C
E01C
ENDCHAR
STARTCHAR y
ENCODING 121
SWIDTH 500 0
DWIDTH 16 0
BBX 14 23 1 -7
BITMAP
601C
F01C
F01C
F03C
F03C
F03C
783C
7878
7878
3C70
3CF0
1EF0
1FE0
0FE0
0FC0
07C0
0780
0F80
0F00
1E00
3E00
3C00
1800
ENDCHAR
STARTCHAR z
ENCODING 122
SWIDTH 444 0
DWIDTH 14 0
BBX 13 16 1 0
BITMAP
7FF0
FFF0
FFF0
00F0
01F0
03E0
07C0
1F80
3F00
7E00
7C00
F800
F000
FFF8
FFF8
FFF0
ENDCHAR
STARTCHAR braceleft
ENCODING 123
SWIDTH 389 0
DWIDTH 12 0
BBX 9 29 2 -7
BITMAP
0F80
1F80
1F00
3C00
3C00
3C00
3C00
3C00
3C00
3C00
3C00
3C00
7C00
F800
E000
F800
3C00
3C00
3C00
3C00
3C00
3C00
3C00
3C00
3C00
3C00
1F00
1F80
0F80
ENDCHAR
STARTCHAR bar
ENCODING 124
SWIDTH 222 0
DWIDTH 7 0
BBX 3 32 2 -8
BITMAP
E0
E0
E0
E0
E0
E0
E0
E0
E0
E0
E0
E0
E0
E0
E0
E0
E0
E0
E0
E0
E0
E0
E0
E0
E0
E0
E0
E0
E0
E0
E0
E0
ENDCHAR
STARTCHAR braceright
ENCODING 125
SWIDTH 389 0
DWIDTH 12 0
BBX 10 29 1 -7
BITMAP
F800
FC00
7E00
1E00
1E00
1E00
1E00
1E00
1E00
1E00
1E00
1E00
0F00
07C0
03C0
0FC0
0F00
1E00
1E00
1E00
1E00
1E00
1E00
1E00
1E00
1E00
7E00
FC00
F800
ENDCHAR
STARTCHAR asciitilde
ENCODING 126
SWIDTH 600 0
DWIDTH 19 0
BBX 15 5 2 6
BITMAP
3E04
7F8E
FFFE
63FC
4078
ENDCHAR
STARTCHAR uni00A0
ENCODING 160
SWIDTH 305 0
DWIDTH 10 0
BBX 1 1 0 0
BITMAP
00
ENDCHAR
STARTCHAR exclamdown
ENCODING 161
SWIDTH 333 0
DWIDTH 11 0
BBX 5 22 3 -7
BITMAP
70
F8
F8
F0
70
00
00
70
F0
F0
F0
F0
F0
F0
F0
F0
F8
F8
F8
F8
F0
70
ENDCHAR
STARTCHAR cent
ENCODING 162
SWIDTH 611 0
DWIDTH 20 0
BBX 15 23 1 -1
BITMAP
00C0
01E0
01E0
01E0
0FFC
1FFE
7FFE
7FE0
F9E0
F9E0
F1E0
F1E0
F9E0
7DE0
7FE0
3FFE
1FFE
07FE
01E0
01E0
01E0
01E0
00E0
ENDCHAR
STARTCHAR sterling
ENCODING 163
SWIDTH 611 0
DWIDTH 20 0
BBX 19 22 0 0
BITMAP
001F80
007FE0
00FFE0
01FFE0
03E000
03E000
03C000
03C000
03C000
3FFF80
3FFF80
3FFF80
03C000
03C000
03C000
03C000
03C000
07C000
3FFFC0
FFFFC0
FFFFC0
78FF80
ENDCHAR
STARTCHAR currency
ENCODING 164
SWIDTH 611 0
DWIDTH 20 0
BBX 16 16 2 3
BITMAP
47E6
FFFF
FFFE
7E7C
781E
F01E
F00F
E00F
E00F
F00F
F01E
781E
7E7C
FFFE
FFFF
47E6
ENDCHAR
STARTCHAR yen
ENCODING 165
SWIDTH 611 0
DWIDTH 20 0
BBX 17 22 1 0
BITMAP
700380
F00780
F80780
780F80
7C0F80
7C1F00
3E1E00
7E3F00
7F7F80
7FFF80
07F000
01E000
3FFF00
7FFF00
3FFF00
01E000
01E000
01E000
01E000
01E000
01E000
01C000
ENDCHAR
STARTCHAR brokenbar
ENCODING 166
SWIDTH 222 0
DWIDTH 7 0
BBX 3 27 2 -6
BITMAP
E0
E0
E0
E0
E0
E0
E0
E0
E0
E0
E0
00
00
00
00
00
E0
E0
E0
E0
E0
E0
E0
E0
E0
E0
E0
ENDCHAR
STARTCHAR section
ENCODING 167
SWIDTH 500 0
DWIDTH 16 0
BBX 14 22 1 0
BITMAP
1FF0
3FF8
7FF8
7C00
7800
7C00
3F80
7FF0
FFF8
F1F8
F07C
FE3C
7FBC
3FF8
0FF8
01F8
0078
0078
00F8
7FF8
FFF0
7FC0
ENDCHAR
STARTCHAR dieresis
ENCODING 168
SWIDTH 278 0
DWIDTH 9 0
BBX 11 4 -1 18
BITMAP
60C0
F1E0
F1E0
60C0
ENDCHAR
STARTCHAR copyright
ENCODING 169
SWIDTH 800 0
DWIDTH 26 0
BBX 23 22 1 0
BITMAP
00FE00
03FFC0
0FFFE0
1F00F0
3C0078
387E3C
78FF9C
71E39E
73C1CE
F3800E
E3800E
E3800E
F3800E
73C18E
71E39E
78FF9C
387E3C
3C0078
1F00F0
0FFFE0
03FFC0
00FE00
ENDCHAR
STARTCHAR ordfeminine
ENCODING 170
SWIDTH 334 0
DWIDTH 11 0
BBX 9 10 1 12
BITMAP
7F00
FF80
0380
3F80
7F80
E380
C380
E380
FF80
7D80
ENDCHAR
STARTCHAR guillemotleft
ENCODING 171
SWIDTH 500 0
DWIDTH 16 0
BBX 12 13 2 2
BITMAP
1830
1C70
3CF0
7CF0
79E0
F1E0
F3C0
F3E0
79E0
78F0
3CF0
3C70
1C70
ENDCHAR
STARTCHAR logicalnot
ENCODING 172
SWIDTH 600 0
DWIDTH 19 0
BBX 17 10 1 3
BITMAP
FFFF80
FFFF80
FFFF80
000780
000780
000780
000780
000780
000780
000780
ENDCHAR
STARTCHAR uni00AD
ENCODING 173
SWIDTH 333 0
DWIDTH 11 0
BBX 8 3 1 7
BITMAP
7F
FF
7F
ENDCHAR
STARTCHAR registered
ENCODING 174
SWIDTH 800 0
DWIDTH 26 0
BBX 23 22 1 0
BITMAP
00FE00
03FFC0
0FFFE0
1F00F0
3C0078
39FE3C
79FF1C
71C39E
71C38E
F1C38E
E1FF0E
E1FE0E
F1CC0E
71CE0E
71C61E
79C71C
39C33C
3C0078
1F00F0
0FFFE0
03FFC0
00FE00
ENDCHAR
STARTCHAR macron
ENCODING 175
SWIDTH 278 0
DWIDTH 9 0
BBX 9 3 0 19
BITMAP
FF80
FF80
FF80
ENDCHAR
STARTCHAR degree
ENCODING 176
SWIDTH 400 0
DWIDTH 13 0
BBX 9 9 2 13
BITMAP
3C00
7F00
E300
C180
C180
C180
E300
7F00
3E00
ENDCHAR
STARTCHAR plusminus
ENCODING 177
SWIDTH 600 0
DWIDTH 19 0
BBX 17 16 1 0
BITMAP
01C000
01C000
01C000
01C000
FFFF80
FFFF80
FFFF80
01C000
01C000
01C000
01C000
01C000
000000
FFFF80
FFFF80
FFFF80
ENDCHAR
STARTCHAR twosuperior
ENCODING 178
SWIDTH 366 0
DWIDTH 12 0
BBX 11 13 0 9
BITMAP
7F80
7FC0
3FE0
00E0
01E0
03C0
0F80
3E00
7800
F000
FFC0
FFE0
7FE0
ENDCHAR
STARTCHAR threesuperior
ENCODING 179
SWIDTH 366 0
DWIDTH 12 0
BBX 12 13 0 9
BITMAP
7FC0
FFC0
7F80
1E00
3F80
3FC0
03E0
00E0
00F0
00E0
7FE0
FFC0
FF80
ENDCHAR
STARTCHAR acute
ENCODING 180
SWIDTH 278 0
DWIDTH 9 0
BBX 9 5 0 18
BITMAP
0100
0F80
7F80
FF00
F000
ENDCHAR
STARTCHAR mu
ENCODING 181
SWIDTH 556 0
DWIDTH 18 0
BBX 14 23 2 -7
BITMAP
6018
F03C
F03C
F03C
F03C
F03C
F03C
F03C
F03C
F03C
F03C
F07C
FDFC
FFFC
FFFC
FF18
F000
F000
F000
F000
F000
F000
6000
ENDCHAR
STARTCHAR paragraph
ENCODING 182
SWIDTH 620 0
DWIDTH 20 0
BBX 17 22 1 0
BITMAP
0FFF80
3FFF80
7FFF80
FFC380
FFC380
FFC380
FFC380
FFC380
7FC380
3FC380
1FC380
01C380
01C380
01C380
01C380
01C380
01C380
01C380
01C380
01C380
01C380
01C380
ENDCHAR
STARTCHAR periodcentered
ENCODING 183
SWIDTH 305 0
DWIDTH 10 0
BBX 4 5 3 6
BITMAP
60
F0
F0
F0
E0
ENDCHAR
STARTCHAR cedilla
ENCODING 184
SWIDTH 278 0
DWIDTH 9 0
BBX 9 8 0 -7
BITMAP
1800
1800
1000
1F00
0380
C380
FF00
0C00
ENDCHAR
STARTCHAR onesuperior
ENCODING 185
SWIDTH 366 0
DWIDTH 12 0
BBX 10 13 1 9
BITMAP
1C00
FC00
FC00
1C00
1C00
1C00
1C00
1C00
1C00
1C00
7F00
FFC0
FF80
ENDCHAR
STARTCHAR ordmasculine
ENCODING 186
SWIDTH 334 0
DWIDTH 11 0
BBX 10 10 0 12
BITMAP
1F00
7F80
73C0
E1C0
E0C0
E0C0
E1C0
71C0
7F80
1F00
ENDCHAR
STARTCHAR guillemotright
ENCODING 187
SWIDTH 500 0
DWIDTH 16 0
BBX 12 13 2 2
BITMAP
4180
E380
F3C0
F3E0
79E0
78F0
3CF0
7CF0
79E0
F1E0
F3C0
E3C0
E380
ENDCHAR
STARTCHAR onequarter
ENCODING 188
SWIDTH 916 0
DWIDTH 29 0
BBX 28 22 1 0
BITMAP
1C001C00
FE001C00
FE003C00
1E007800
1E00F800
1E00F000
1E01E000
1E03E000
1E03C000
1E078F80
7F8F9F80
FFCF3F80
FFDE7B80
003E7380
003CE380
0078E380
00F1FFE0
01F1FFF0
01E0FFF0
03C00380
03C00380
03800380
ENDCHAR
STARTCHAR onehalf
ENCODING 189
SWIDTH 916 0
DWIDTH 29 0
BBX 28 22 1 0
BITMAP
1C001800
FC003C00
FC007800
1C00F800
1C00F000
1C01E000
1C03E000
1C03C000
1C07BE00
1C0FFFC0
7F0F7FE0
FFDE00E0
FFBC00E0
003C01E0
007803C0
00F00F80
01F03E00
01E07800
03C07000
07C07FE0
0780FFF0
03007FE0
ENDCHAR
STARTCHAR threequarters
ENCODING 190
SWIDTH 916 0
DWIDTH 29 0
BBX 28 22 1 0
BITMAP
7FC00C00
FFC01E00
7FC03C00
1E003C00
3F807800
3FC0F000
03E0F000
00F1E000
00F3C000
00F7C7C0
7FE78FC0
FFCF1DC0
FF9F39C0
001E71C0
003C71C0
007CE1C0
0078FFE0
00F0FFF0
01F0FFF0
01E001C0
03C001C0
01800180
ENDCHAR
STARTCHAR questiondown
ENCODING 191
SWIDTH 500 0
DWIDTH 16 0
BBX 14 22 1 -7
BITMAP
01C0
01E0
03E0
01E0
01C0
0000
0000
01C0
01E0
03E0
03C0
0FC0
1F80
3F00
7C00
F800
F800
F800
FFF8
7FFC
3FFC
1FFC
ENDCHAR
STARTCHAR Agrave
ENCODING 192
SWIDTH 667 0
DWIDTH 21 0
BBX 19 27 1 0
BITMAP
078000
07E000
07FC00
00FC00
000800
00E000
01F000
03F800
07FC00
07BC00
0FBE00
0F1E00
1E1F00
1E0F00
3E0F00
3FE780
3FFF80
7FFFC0
787FC0
780FC0
F807E0
F003E0
F001E0
F001E0
F001E0
F001E0
E000E0
ENDCHAR
STARTCHAR Aacute
ENCODING 193
SWIDTH 667 0
DWIDTH 21 0
BBX 19 27 1 0
BITMAP
001C00
00FC00
03FC00
07E000
020000
00E000
01F000
03F800
07FC00
07BC00
0FBE00
0F1E00
1E1F00
1E0F00
3E0F00
3FE780
3FFF80
7FFFC0
787FC0
780FC0
F807E0
F003E0
F001E0
F001E0
F001E0
F001E0
E000E0
ENDCHAR
STARTCHAR Acircumflex
ENCODING 194
SWIDTH 667 0
DWIDTH 21 0
BBX 19 28 1 0
BITMAP
00E000
01F000
03B800
039C00
070E00
000000
00E000
01F000
03F800
07FC00
07BC00
0FBE00
0F1E00
1E1F00
1E0F00
3E0F00
3FE780
3FFF80
7FFFC0
787FC0
780FC0
F807E0
F003E0
F001E0
F001E0
F001E0
F001E0
E000E0
ENDCHAR
STARTCHAR Atilde
ENCODING 195
SWIDTH 667 0
DWIDTH 21 0
BBX 19 28 1 0
BITMAP
000200
03C600
07FE00
0FFC00
0C0000
000000
00E000
01F000
03F800
07FC00
07BC00
0FBE00
0F1E00
1E1F00
1E0F00
3E0F00
3FE780
3FFF80
7FFFC0
787FC0
780FC0
F807E0
F003E0
F001E0
F001E0
F001E0
F001E0
E000E0
ENDCHAR
STARTCHAR Adieresis
ENCODING 196
SWIDTH 667 0
DWIDTH 21 0
BBX 19 27 1 0
BITMAP
060E00
0F1E00
0F1E00
060E00
000000
00E000
01F000
03F800
07FC00
07BC00
0FBE00
0F1E00
1E1F00
1E0F00
3E0F00
3FE780
3FFF80
7FFFC0
787FC0
780FC0
F807E0
F003E0
F001E0
F001E0
F001E0
F001E0
E000E0
ENDCHAR
STARTCHAR Aring
ENCODING 197
SWIDTH 667 0
DWIDTH 21 0
BBX 19 29 1 0
BITMAP
00E000
01F800
031800
031800
01F800
00F000
000000
00E000
01F000
03F800
07FC00
07BC00
0FBE00
0F1E00
1E1F00
1E0F00
3E0F00
3FE780
3FFF80
7FFFC0
787FC0
780FC0
F807E0
F003E0
F001E0
F001E0
F001E0
F001E0
E000E0
ENDCHAR
STARTCHAR AE
ENCODING 198
SWIDTH 889 0
DWIDTH 28 0
BBX 28 22 0 0
BITMAP
000FFFE0
003FFFF0
007FFFF0
00FFFFC0
01F3C000
03E3C000
07C3C000
0783FFC0
0F1FFFE0
1E7FFFE0
1EFFFF80
3FFBC000
3FC3C000
3F03C000
7E03C000
7C03C000
F803C000
F803C000
F003FFC0
F003FFF0
F003FFF0
E003FFE0
ENDCHAR
STARTCHAR Ccedilla
ENCODING 199
SWIDTH 611 0
DWIDTH 20 0
BBX 18 29 1 -7
BITMAP
03FF80
0FFFC0
1FFF80
3FFF80
7E0000
7C0000
780000
F80000
F80000
F80000
F80000
780000
7C0000
7C0000
3E0000
3F0000
1F8000
0FF000
07FF80
03FFC0
00FFC0
003F80
006000
006000
007C00
000E00
030E00
01FC00
003000
ENDCHAR
STARTCHAR Egrave
ENCODING 200
SWIDTH 556 0
DWIDTH 18 0
BBX 14 27 2 0
BITMAP
1E00
1F80
1FE0
03E0
0000
7FFC
FFFC
FFFC
FFF8
F000
F000
FFF8
FFFC
FFFC
FFFC
F000
F000
F000
F000
F000
F000
F000
F000
FFF8
FFFC
FFFC
7FFC
ENDCHAR
STARTCHAR Eacute
ENCODING 201
SWIDTH 556 0
DWIDTH 18 0
BBX 14 27 2 0
BITMAP
00E0
07F0
1FE0
1F00
0000
7FFC
FFFC
FFFC
FFF8
F000
F000
FFF8
FFFC
FFFC
FFFC
F000
F000
F000
F000
F000
F000
F000
F000
FFF8
FFFC
FFFC
7FFC
ENDCHAR
STARTCHAR Ecircumflex
ENCODING 202
SWIDTH 556 0
DWIDTH 18 0
BBX 14 28 2 0
BITMAP
0380
07C0
0FC0
1CE0
3870
0000
7FFC
FFFC
FFFC
FFF8
F000
F000
FFF8
FFFC
FFFC
FFFC
F000
F000
F000
F000
F000
F000
F000
F000
FFF8
FFFC
FFFC
7FFC
ENDCHAR
STARTCHAR Edieresis
ENCODING 203
SWIDTH 556 0
DWIDTH 18 0
BBX 14 27 2 0
BITMAP
3870
3878
3878
3870
0000
7FFC
FFFC
FFFC
FFF8
F000
F000
FFF8
FFFC
FFFC
FFFC
F000
F000
F000
F000
F000
F000
F000
F000
FFF8
FFFC
FFFC
7FFC
ENDCHAR
STARTCHAR Igrave
ENCODING 204
SWIDTH 278 0
DWIDTH 9 0
BBX 9 27 0 0
BITMAP
F000
FC00
FF80
1F80
0000
1C00
3C00
3C00
3C00
3C00
3C00
3C00
3C00
3C00
3C00
3C00
3C00
3C00
3C00
3C00
3C00
3C00
3C00
3C00
3C00
3C00
1C00
ENDCHAR
STARTCHAR Iacute
ENCODING 205
SWIDTH 278 0
DWIDTH 9 0
BBX 9 27 0 0
BITMAP
0780
3F80
FF80
F800
0000
1C00
3C00
3C00
3C00
3C00
3C00
3C00
3C00
3C00
3C00
3C00
3C00
3C00
3C00
3C00
3C00
3C00
3C00
3C00
3C00
3C00
1C00
ENDCHAR
STARTCHAR Icircumflex
ENCODING 206
SWIDTH 278 0
DWIDTH 9 0
BBX 9 28 0 0
BITMAP
1C00
3E00
7700
E780
E380
0000
1C00
3C00
3C00
3C00
3C00
3C00
3C00
3C00
3C00
3C00
3C00
3C00
3C00
3C00
3C00
3C00
3C00
3C00
3C00
3C00
3C00
1C00
ENDCHAR
STARTCHAR Idieresis
ENCODING 207
SWIDTH 278 0
DWIDTH 9 0
BBX 11 27 -1 0
BITMAP
60C0
F1E0
F1E0
60C0
0000
0E00
1E00
1E00
1E00
1E00
1E00
1E00
1E00
1E00
1E00
1E00
1E00
1E00
1E00
1E00
1E00
1E00
1E00
1E00
1E00
1E00
0E00
ENDCHAR
STARTCHAR Eth
ENCODING 208
SWIDTH 667 0
DWIDTH 21 0
BBX 20 22 0 0
BITMAP
1FC000
3FF800
3FFE00
3FFF00
3C3F80
3C0FC0
3C07C0
3C03E0
3C03E0
FFE1F0
FFE1F0
FFE1F0
3C00F0
3C00F0
3C01F0
3C01F0
3C01F0
3C07E0
3FFFE0
3FFFC0
3FFF80
1FFE00
ENDCHAR
STARTCHAR Ntilde
ENCODING 209
SWIDTH 611 0
DWIDTH 20 0
BBX 16 28 2 0
BITMAP
0008
0F18
1FF8
1FF0
3000
0000
700E
F80E
FC1F
FE1F
FF1F
FF9F
F7FF
F3FF
F0FF
F07F
F01F
F01F
F01F
F01F
F01F
F01F
F01F
F01F
F01F
F01F
F00E
600E
ENDCHAR
STARTCHAR Ograve
ENCODING 210
SWIDTH 722 0
DWIDTH 23 0
BBX 21 27 1 0
BITMAP
038000
03F000
03FE00
007E00
000000
01FC00
07FF00
0FFF80
1FFFC0
3F07E0
7E01F0
7C01F0
7800F0
F800F8
F800F8
F800F8
F800F8
F800F8
F800F8
7800F0
7C01F0
7E01F0
3F07E0
1FFFC0
0FFF80
07FF00
01FC00
ENDCHAR
STARTCHAR Oacute
ENCODING 211
SWIDTH 722 0
DWIDTH 23 0
BBX 21 27 1 0
BITMAP
000E00
007E00
03FE00
03F000
010000
01FC00
07FF00
0FFF80
1FFFC0
3F07E0
7E01F0
7C01F0
7800F0
F800F8
F800F8
F800F8
F800F8
F800F8
F800F8
7800F0
7C01F0
7E01F0
3F07E0
1FFFC0
0FFF80
07FF00
01FC00
ENDCHAR
STARTCHAR Ocircumflex
ENCODING 212
SWIDTH 722 0
DWIDTH 23 0
BBX 21 28 1 0
BITMAP
007000
00F800
01DC00
03CE00
038E00
000000
01FC00
07FF00
0FFF80
1FFFC0
3F07E0
7E01F0
7C01F0
7800F0
F800F8
F800F8
F800F8
F800F8
F800F8
F800F8
7800F0
7C01F0
7E01F0
3F07E0
1FFFC0
0FFF80
07FF00
01FC00
ENDCHAR
STARTCHAR Otilde
ENCODING 213
SWIDTH 722 0
DWIDTH 23 0
BBX 21 27 1 0
BITMAP
01E300
03FE00
07FE00
040000
000000
01FC00
07FF00
0FFF80
1FFFC0
3F07E0
7E01F0
7C01F0
7800F0
F800F8
F800F8
F800F8
F800F8
F800F8
F800F8
7800F0
7C01F0
7E01F0
3F07E0
1FFFC0
0FFF80
07FF00
01FC00
ENDCHAR
STARTCHAR Odieresis
ENCODING 214
SWIDTH 722 0
DWIDTH 23 0
BBX 21 27 1 0
BITMAP
030600
078F00
078F00
030600
000000
01FC00
07FF00
0FFF80
1FFFC0
3F07E0
7E01F0
7C01F0
7800F0
F800F8
F800F8
F800F8
F800F8
F800F8
F800F8
7800F0
7C01F0
7E01F0
3F07E0
1FFFC0
0FFF80
07FF00
01FC00
ENDCHAR
STARTCHAR multiply
ENCODING 215
SWIDTH 600 0
DWIDTH 19 0
BBX 16 16 2 0
BITMAP
4004
E00E
F01F
783E
3C7C
1EF8
0FE0
07C0
07C0
0FE0
1EF0
3C7C
783E
F01F
E00E
4004
ENDCHAR
STARTCHAR Oslash
ENCODING 216
SWIDTH 722 0
DWIDTH 23 0
BBX 21 28 1 -3
BITMAP
0001C0
0003C0
0003C0
01FF80
07FF80
0FFF80
1FFFC0
3F1FE0
7E1FF0
7C3DF0
783CF0
F87CF8
F878F8
F878F8
F8F0F8
F8F0F8
F9E0F8
79E0F0
7FC1F0
7FC1F0
3F87E0
1FFFC0
0FFF80
0FFF00
1FFC00
1E0000
1C0000
1C0000
ENDCHAR
STARTCHAR Ugrave
ENCODING 217
SWIDTH 611 0
DWIDTH 20 0
BBX 16 27 2 0
BITMAP
0E00
1FC0
1FF0
01F0
0000
700C
701E
701E
701E
F01E
F01E
F01E
F01E
F00E
F00F
F00F
F00F
F00F
F00F
F00F
F00F
F01F
F83E
7FFE
7FFC
1FF8
07E0
ENDCHAR
STARTCHAR Uacute
ENCODING 218
SWIDTH 611 0
DWIDTH 20 0
BBX 16 27 2 0
BITMAP
0070
03F0
0FF0
0F80
0000
700C
701E
701E
701E
F01E
F01E
F01E
F01E
F00E
F00F
F00F
F00F
F00F
F00F
F00F
F00F
F01F
F83E
7FFE
7FFC
1FF8
07E0
ENDCHAR
STARTCHAR Ucircumflex
ENCODING 219
SWIDTH 611 0
DWIDTH 20 0
BBX 16 28 2 0
BITMAP
0380
07C0
0FE0
0E70
1C38
0000
700C
701E
701E
701E
F01E
F01E
F01E
F01E
F00E
F00F
F00F
F00F
F00F
F00F
F00F
F00F
F01F
F83E
7FFE
7FFC
1FF8
07E0
ENDCHAR
STARTCHAR Udieresis
ENCODING 220
SWIDTH 611 0
DWIDTH 20 0
BBX 16 27 2 0
BITMAP
1838
3C78
3C78
1838
0000
700C
701E
701E
701E
F01E
F01E
F01E
F01E
F00E
F00F
F00F
F00F
F00F
F00F
F00F
F00F
F01F
F83E
7FFE
7FFC
1FF8
07E0
ENDCHAR
STARTCHAR Yacute
ENCODING 221
SWIDTH 556 0
DWIDTH 18 0
BBX 16 27 1 0
BITMAP
0078
03F8
0FF8
0F80
0000
E007
F00F
F00F
F00F
F81F
781E
7C3E
3E7C
1FF8
1FF0
0FE0
07C0
03C0
03C0
03C0
03C0
03C0
03C0
03C0
03C0
03C0
0380
ENDCHAR
STARTCHAR Thorn
ENCODING 222
SWIDTH 556 0
DWIDTH 18 0
BBX 16 22 2 0
BITMAP
7000
F000
F000
F000
FFF8
FFFE
FFFE
F07F
F00F
F00F
F01E
F07E
F1FC
FFF8
FFE0
FF80
FC00
F000
F000
F000
F000
7000
ENDCHAR
STARTCHAR germandbls
ENCODING 223
SWIDTH 556 0
DWIDTH 18 0
BBX 17 22 0 0
BITMAP
0FE000
1FF800
3FFC00
3E7C00
3C3C00
3C3C00
FC7800
FDF000
FDE000
3FC000
3FE000
3DFC00
3CFE00
3C3F00
3C0F80
3C0780
3C0780
3C0780
3C7F00
3FFF00
3FFE00
1FF800
ENDCHAR
STARTCHAR agrave
ENCODING 224
SWIDTH 556 0
DWIDTH 18 0
BBX 14 22 1 0
BITMAP
1E00
1FC0
1FF0
01F0
0000
0000
3FE0
7FF8
7FFC
007C
003C
07FC
1FFC
7FFC
7C3C
F03C
F03C
F03C
F87C
7FFC
7FDC
1F9C
ENDCHAR
STARTCHAR aacute
ENCODING 225
SWIDTH 556 0
DWIDTH 18 0
BBX 14 22 1 0
BITMAP
00F0
07F0
1FF0
1F00
0000
0000
3FE0
7FF8
7FFC
007C
003C
07FC
1FFC
7FFC
7C3C
F03C
F03C
F03C
F87C
7FFC
7FDC
1F9C
ENDCHAR
STARTCHAR acircumflex
ENCODING 226
SWIDTH 556 0
DWIDTH 18 0
BBX 14 22 1 0
BITMAP
0380
07C0
0EE0
1E70
1C38
0000
3FE0
7FF8
7FFC
007C
003C
07FC
1FFC
7FFC
7C3C
F03C
F03C
F03C
F87C
7FFC
7FDC
1F9C
ENDCHAR
STARTCHAR atilde
ENCODING 227
SWIDTH 556 0
DWIDTH 18 0
BBX 14 22 1 0
BITMAP
0E08
1FF8
3FF0
20E0
0000
0000
3FE0
7FF8
7FFC
007C
003C
07FC
1FFC
7FFC
7C3C
F03C
F03C
F03C
F87C
7FFC
7FDC
1F9C
ENDCHAR
STARTCHAR adieresis
ENCODING 228
SWIDTH 556 0
DWIDTH 18 0
BBX 14 22 1 0
BITMAP
1838
3C78
3C78
1838
0000
0000
3FE0
7FF8
7FFC
007C
003C
07FC
1FFC
7FFC
7C3C
F03C
F03C
F03C
F87C
7FFC
7FDC
1F9C
ENDCHAR
STARTCHAR aring
ENCODING 229
SWIDTH 556 0
DWIDTH 18 0
BBX 14 25 1 0
BITMAP
0380
07C0
0E60
0C60
0C60
07E0
03C0
0000
0000
3FE0
7FF8
7FFC
007C
003C
07FC
1FFC
7FFC
7C3C
F03C
F03C
F03C
F87C
7FFC
7FDC
1F9C
ENDCHAR
STARTCHAR ae
ENCODING 230
SWIDTH 778 0
DWIDTH 25 0
BBX 25 16 0 0
BITMAP
3FE1F000
7FF7FC00
7FFFFE00
00FF1F00
003E0F00
03FFFF00
1FFFFF00
3FFFFF00
7E3C0000
F83C0000
F03E0000
F03E0000
FFFFC000
7FFFFF00
3FF7FF80
1FE1FF00
ENDCHAR
STARTCHAR ccedilla
ENCODING 231
SWIDTH 500 0
DWIDTH 16 0
BBX 15 23 1 -7
BITMAP
0FFC
3FFC
3FFC
7FF8
F800
F800
F000
F000
F000
F800
7C00
7E00
3FFC
1FFE
07FE
01FC
0180
0100
01F0
0038
0C38
0FF0
00C0
ENDCHAR
STARTCHAR egrave
ENCODING 232
SWIDTH 556 0
DWIDTH 18 0
BBX 16 22 1 0
BITMAP
0E00
0FC0
0FF0
01F0
0000
0000
07E0
1FF8
3FFC
7E7E
781E
F81E
FFFF
FFFF
FFFE
F000
F800
7C00
7F80
3FFE
1FFE
07FE
ENDCHAR
STARTCHAR eacute
ENCODING 233
SWIDTH 556 0
DWIDTH 18 0
BBX 16 22 1 0
BITMAP
0070
03F8
0FF8
0FC0
0000
0000
07E0
1FF8
3FFC
7E7E
781E
F81E
FFFF
FFFF
FFFE
F000
F800
7C00
7F80
3FFE
1FFE
07FE
ENDCHAR
STARTCHAR ecircumflex
ENCODING 234
SWIDTH 556 0
DWIDTH 18 0
BBX 16 22 1 0
BITMAP
03C0
03E0
07E0
0E70
1C38
0000
07E0
1FF8
3FFC
7E7E
781E
F81E
FFFF
FFFF
FFFE
F000
F800
7C00
7F80
3FFE
1FFE
07FE
ENDCHAR
STARTCHAR edieresis
ENCODING 235
SWIDTH 556 0
DWIDTH 18 0
BBX 16 22 1 0
BITMAP
1C38
1C3C
1C3C
1C38
0000
0000
07E0
1FF8
3FFC
7E7E
781E
F81E
FFFF
FFFF
FFFE
F000
F800
7C00
7F80
3FFE
1FFE
07FE
ENDCHAR
STARTCHAR igrave
ENCODING 236
SWIDTH 278 0
DWIDTH 9 0
BBX 9 22 0 0
BITMAP
E000
FC00
FF80
1F80
0100
0000
1C00
1C00
1C00
1C00
1C00
1C00
1C00
1C00
1C00
1C00
1C00
1C00
1C00
1C00
1C00
1C00
ENDCHAR
STARTCHAR iacute
ENCODING 237
SWIDTH 278 0
DWIDTH 9 0
BBX 9 22 0 0
BITMAP
0380
1F80
FF80
FC00
0000
0000
1C00
1C00
1C00
1C00
1C00
1C00
1C00
1C00
1C00
1C00
1C00
1C00
1C00
1C00
1C00
1C00
ENDCHAR
STARTCHAR icircumflex
ENCODING 238
SWIDTH 278 0
DWIDTH 9 0
BBX 9 22 0 0
BITMAP
1C00
3E00
7700
E380
C380
0000
1C00
1C00
1C00
1C00
1C00
1C00
1C00
1C00
1C00
1C00
1C00
1C00
1C00
1C00
1C00
1C00
ENDCHAR
STARTCHAR idieresis
ENCODING 239
SWIDTH 278 0
DWIDTH 9 0
BBX 11 22 -1 0
BITMAP
60C0
F1E0
F1E0
60C0
0000
0000
0E00
0E00
0E00
0E00
0E00
0E00
0E00
0E00
0E00
0E00
0E00
0E00
0E00
0E00
0E00
0E00
ENDCHAR
STARTCHAR eth
ENCODING 240
SWIDTH 556 0
DWIDTH 18 0
BBX 15 23 1 0
BITMAP
0010
3E78
3FF0
1FE0
07F0
0FF8
0C78
003C
0FFC
1FFE
3FFE
7E7E
783E
781E
F01E
F01E
F01E
781E
783E
7E7C
3FFC
1FF0
07E0
ENDCHAR
STARTCHAR ntilde
ENCODING 241
SWIDTH 556 0
DWIDTH 18 0
BBX 14 22 2 0
BITMAP
1C10
3FB0
3FF0
21E0
0000
0000
63E0
FFF0
FFF8
FEF8
F87C
F03C
F03C
F03C
F03C
F03C
F03C
F03C
F03C
F03C
F03C
6038
ENDCHAR
STARTCHAR ograve
ENCODING 242
SWIDTH 556 0
DWIDTH 18 0
BBX 16 22 1 0
BITMAP
0E00
1FC0
1FF0
03F0
0000
0000
07E0
1FF8
3FFC
7FFE
783E
F81E
F00F
F00F
F00F
F00F
F81E
783E
7FFE
3FFC
1FF8
07E0
ENDCHAR
STARTCHAR oacute
ENCODING 243
SWIDTH 556 0
DWIDTH 18 0
BBX 16 22 1 0
BITMAP
0070
03F0
0FF0
0F80
0000
0000
07E0
1FF8
3FFC
7FFE
783E
F81E
F00F
F00F
F00F
F00F
F81E
783E
7FFE
3FFC
1FF8
07E0
ENDCHAR
STARTCHAR ocircumflex
ENCODING 244
SWIDTH 556 0
DWIDTH 18 0
BBX 16 22 1 0
BITMAP
03C0
07C0
07E0
0E70
1C38
0000
07E0
1FF8
3FFC
7FFE
783E
F81E
F00F
F00F
F00F
F00F
F81E
783E
7FFE
3FFC
1FF8
07E0
ENDCHAR
STARTCHAR otilde
ENCODING 245
SWIDTH 556 0
DWIDTH 18 0
BBX 16 22 1 0
BITMAP
0E08
1FD8
1FF8
10E0
0000
0000
07E0
1FF8
3FFC
7FFE
783E
F81E
F00F
F00F
F00F
F00F
F81E
783E
7FFE
3FFC
1FF8
07E0
ENDCHAR
STARTCHAR odieresis
ENCODING 246
SWIDTH 556 0
DWIDTH 18 0
BBX 16 22 1 0
BITMAP
1838
3C38
3C38
1C38
0000
0000
07E0
1FF8
3FFC
7FFE
783E
F81E
F00F
F00F
F00F
F00F
F81E
783E
7FFE
3FFC
1FF8
07E0
ENDCHAR
STARTCHAR divide
ENCODING 247
SWIDTH 600 0
DWIDTH 19 0
BBX 17 18 1 -1
BITMAP
01E000
03E000
03E000
03E000
01C000
000000
000000
FFFF80
FFFF80
FFFF80
000000
000000
000000
01E000
03E000
03E000
03E000
01C000
ENDCHAR
STARTCHAR oslash
ENCODING 248
SWIDTH 556 0
DWIDTH 18 0
BBX 16 21 1 -3
BITMAP
000C
001C
07FC
1FF8
3FFC
7FFC
787E
F8FE
F1CF
F18F
F38F
F30F
FF1E
7E3E
7FFE
3FFC
3FF8
3FE0
7800
7000
2000
ENDCHAR
STARTCHAR ugrave
ENCODING 249
SWIDTH 556 0
DWIDTH 18 0
BBX 14 22 2 0
BITMAP
1C00
3F80
3FE0
07E0
0000
0000
6018
F03C
F03C
F03C
F03C
F03C
F03C
F03C
F03C
F03C
F03C
F07C
FDFC
7FFC
3FFC
1F18
ENDCHAR
STARTCHAR uacute
ENCODING 250
SWIDTH 556 0
DWIDTH 18 0
BBX 14 22 2 0
BITMAP
00E0
07E0
1FE0
1F00
0000
0000
6018
F03C
F03C
F03C
F03C
F03C
F03C
F03C
F03C
F03C
F03C
F07C
FDFC
7FFC
3FFC
1F18
ENDCHAR
STARTCHAR ucircumflex
ENCODING 251
SWIDTH 556 0
DWIDTH 18 0
BBX 14 22 2 0
BITMAP
0780
0F80
0FC0
1CE0
3870
0000
6018
F03C
F03C
F03C
F03C
F03C
F03C
F03C
F03C
F03C
F03C
F07C
FDFC
7FFC
3FFC
1F18
ENDCHAR
STARTCHAR udieresis
ENCODING 252
SWIDTH 556 0
DWIDTH 18 0
BBX 14 22 2 0
BITMAP
3070
7870
7870
3870
0000
0000
6018
F03C
F03C
F03C
F03C
F03C
F03C
F03C
F03C
F03C
F03C
F07C
FDFC
7FFC
3FFC
1F18
ENDCHAR
STARTCHAR yacute
ENCODING 253
SWIDTH 500 0
DWIDTH 16 0
BBX 14 29 1 -7
BITMAP
00E0
07E0
1FE0
1F80
1000
0000
601C
F01C
F01C
F03C
F03C
F03C
783C
7878
7878
3C70
3CF0
1EF0
1FE0
0FE0
0FC0
07C0
0780
0F80
0F00
1E00
3E00
3C00
1800
ENDCHAR
STARTCHAR thorn
ENCODING 254
SWIDTH 556 0
DWIDTH 18 0
BBX 15 29 2 -7
BITMAP
6000
F000
F000
F000
F000
F000
FE00
FFC0
FFF0
FFF8
F0FC
F07C
F03E
F01E
F01E
F01E
F01E
F03C
F3FC
FFF8
FFF0
FFC0
F000
F000
F000
F000
F000
F000
6000
ENDCHAR
STARTCHAR ydieresis
ENCODING 255
SWIDTH 500 0
DWIDTH 16 0
BBX 14 29 1 -7
BITMAP
3870
7870
7870
3870
0000
0000
601C
F01C
F01C
F03C
F03C
F03C
783C
7878
7878
3C70
3CF0
1EF0
1FE0
0FE0
0FC0
07C0
0780
0F80
0F00
1E00
3E00
3C00
1800
ENDCHAR
STARTCHAR .notdef
ENCODING -1
SWIDTH 500 0
DWIDTH 16 0
BBX 16 23 0 0
BITMAP
FFFF
FFFF
E007
F00F
F00F
D81B
CC33
CC33
C663
C2C3
C3C3
C183
C383
C3C3
C663
C423
CC33
D81B
D00B
F00F
E007
FFFF
FFFF
ENDCHAR
STARTCHAR quoteright
ENCODING -1
SWIDTH 222 0
DWIDTH 7 0
BBX 6 9 1 13
BITMAP
38
3C
78
78
78
F0
F0
E0
C0
ENDCHAR
STARTCHAR quoteleft
ENCODING -1
SWIDTH 222 0
DWIDTH 7 0
BBX 5 9 1 13
BITMAP
E0
E0
F0
F0
78
78
78
38
18
ENDCHAR
STARTCHAR fraction
ENCODING -1
SWIDTH 167 0
DWIDTH 5 0
BBX 17 22 -6 0
BITMAP
000300
000780
000F80
000F00
001E00
003E00
003C00
007800
00F800
00F000
01E000
03C000
07C000
078000
0F0000
1F0000
1E0000
3C0000
7C0000
780000
F00000
600000
ENDCHAR
STARTCHAR florin
ENCODING -1
SWIDTH 611 0
DWIDTH 20 0
BBX 19 29 0 -7
BITMAP
0007E0
001FE0
003FE0
003FE0
007C00
007800
007800
007800
07FF00
0FFF80
0FFF80
07FF00
00F000
00F000
01F000
01F000
01E000
01E000
01E000
01E000
03E000
03E000
03C000
03C000
07C000
7F8000
FF8000
FF0000
7C0000
ENDCHAR
STARTCHAR quotedblleft
ENCODING -1
SWIDTH 389 0
DWIDTH 12 0
BBX 12 9 0 13
BITMAP
6180
F3C0
FBC0
79E0
79E0
3CF0
3CF0
1C70
1C70
ENDCHAR
STARTCHAR guilsinglleft
ENCODING -1
SWIDTH 333 0
DWIDTH 11 0
BBX 6 13 3 2
BITMAP
18
3C
3C
78
F8
F0
F0
F0
F8
78
3C
3C
18
ENDCHAR
STARTCHAR guilsinglright
ENCODING -1
SWIDTH 333 0
DWIDTH 11 0
BBX 6 13 2 2
BITMAP
60
E0
F0
F8
78
3C
3C
3C
78
78
F0
F0
E0
ENDCHAR
STARTCHAR fi
ENCODING -1
SWIDTH 611 0
DWIDTH 20 0
BBX 17 22 0 0
BITMAP
07FF00
0FFF80
1FFF80
1FFF80
1E0780
1E0000
FFFF00
FFFF80
FFFF80
1E0780
1E0780
1E0780
1E0780
1E0780
1E0780
1E0780
1E0780
1E0780
1E0780
1E0780
1E0780
1C0300
ENDCHAR
STARTCHAR fl
ENCODING -1
SWIDTH 611 0
DWIDTH 20 0
BBX 17 22 0 0
BITMAP
07FE00
0FFF80
1FFF80
1FFF80
1E0780
1E0780
FFE780
FFE780
FFE780
1E0780
1E0780
1E0780
1E0780
1E0780
1E0780
1E0780
1E0780
1E0780
1E0780
1E0780
1E0780
1C0300
ENDCHAR
STARTCHAR endash
ENCODING -1
SWIDTH 500 0
DWIDTH 16 0
BBX 16 3 0 7
BITMAP
FFFF
FFFF
FFFF
ENDCHAR
STARTCHAR dagger
ENCODING -1
SWIDTH 444 0
DWIDTH 14 0
BBX 10 22 2 0
BITMAP
0C00
1E00
1E00
1E00
1E00
FFC0
FFC0
FFC0
1E00
1E00
1E00
1E00
1E00
1E00
1E00
1E00
1E00
1E00
1E00
1E00
1E00
0C00
ENDCHAR
STARTCHAR daggerdbl
ENCODING -1
SWIDTH 444 0
DWIDTH 14 0
BBX 10 22 2 0
BITMAP
0C00
1E00
1E00
1E00
1E00
FFC0
FFC0
FFC0
1E00
1E00
1E00
1E00
1E00
1E00
FFC0
FFC0
FFC0
1E00
1E00
1E00
1E00
0C00
ENDCHAR
STARTCHAR bullet
ENCODING -1
SWIDTH 500 0
DWIDTH 16 0
BBX 12 11 2 6
BITMAP
0F00
3FC0
7FE0
7FE0
7FE0
FFF0
7FE0
7FE0
7FE0
3FC0
0F00
ENDCHAR
STARTCHAR quotesinglbase
ENCODING -1
SWIDTH 222 0
DWIDTH 7 0
BBX 6 9 1 -3
BITMAP
38
3C
78
78
78
F0
F0
E0
C0
ENDCHAR
STARTCHAR quotedblbase
ENCODING -1
SWIDTH 389 0
DWIDTH 12 0
BBX 12 9 0 -3
BITMAP
1C70
3CF0
3CF0
3CF0
79E0
79E0
73C0
F3C0
6180
ENDCHAR
STARTCHAR quotedblright
ENCODING -1
SWIDTH 389 0
DWIDTH 12 0
BBX 12 9 0 13
BITMAP
1C70
3CF0
3CF0
3CF0
79E0
79E0
73C0
F3C0
6180
ENDCHAR
STARTCHAR ellipsis
ENCODING -1
SWIDTH 1000 0
DWIDTH 32 0
BBX 26 5 3 0
BITMAP
20080100
F01E03C0
F81E07C0
F01E07C0
700E0380
ENDCHAR
STARTCHAR perthousand
ENCODING -1
SWIDTH 1000 0
DWIDTH 32 0
BBX 32 22 0 0
BITMAP
1E018000
3F038000
7F838000
F3C78000
E1C70000
E1CE0000
E1CE0000
F3DC0000
7FBC0000
7FB80000
3F780000
0077E0FC
00EFF1FE
00EFF9FE
01DE7BCF
03DE3B87
039C3B87
079E3B8F
070E7BCF
0E0FF1FE
0E07F1FC
0C03C078
ENDCHAR
STARTCHAR circumflex
ENCODING -1
SWIDTH 278 0
DWIDTH 9 0
BBX 9 5 0 17
BITMAP
1C00
3E00
7700
E380
C380
ENDCHAR
STARTCHAR tilde
ENCODING -1
SWIDTH 278 0
DWIDTH 9 0
BBX 11 5 -1 17
BITMAP
1060
7EE0
FFC0
C780
8000
ENDCHAR
STARTCHAR breve
ENCODING -1
SWIDTH 278 0
DWIDTH 9 0
BBX 10 5 -1 17
BITMAP
C040
60C0
7FC0
3F80
0E00
ENDCHAR
STARTCHAR dotaccent
ENCODING -1
SWIDTH 278 0
DWIDTH 9 0
BBX 3 4 3 18
BITMAP
E0
E0
E0
E0
ENDCHAR
STARTCHAR ring
ENCODING -1
SWIDTH 278 0
DWIDTH 9 0
BBX 7 7 1 18
BITMAP
38
7C
C6
C6
C6
7C
38
ENDCHAR
STARTCHAR hungarumlaut
ENCODING -1
SWIDTH 278 0
DWIDTH 9 0
BBX 13 7 -2 17
BITMAP
0C30
1C78
3C70
38E0
71C0
E380
E380
ENDCHAR
STARTCHAR ogonek
ENCODING -1
SWIDTH 278 0
DWIDTH 9 0
BBX 7 7 1 -7
BITMAP
0E
70
E0
E0
E0
FE
7C
ENDCHAR
STARTCHAR caron
ENCODING -1
SWIDTH 278 0
DWIDTH 9 0
BBX 9 5 0 17
BITMAP
E380
E780
7700
3E00
1C00
ENDCHAR
STARTCHAR emdash
ENCODING -1
SWIDTH 1000 0
DWIDTH 32 0
BBX 32 3 0 7
BITMAP
FFFFFFFF
FFFFFFFF
FFFFFFFF
ENDCHAR
STARTCHAR Lslash
ENCODING -1
SWIDTH 444 0
DWIDTH 14 0
BBX 16 22 -1 0
BITMAP
0E00
1E00
1E00
1E00
1E00
1E00
1E00
1E60
1FF0
1FF0
1FE0
7F80
FE00
FE00
1E00
1E00
1E00
1E00
1FFE
1FFF
1FFF
0FFE
ENDCHAR
STARTCHAR OE
ENCODING -1
SWIDTH 1000 0
DWIDTH 32 0
BBX 30 22 1 0
BITMAP
01F87FF8
07FEFFFC
0FFFFFFC
1FFFFFF0
3E07F000
7C03F000
7801F000
7801FFF8
F800FFFC
F000FFF8
F000FFF0
F000F000
F000F000
F800F000
7801F000
7801F000
7C03F000
3E07F000
1FFFFFF0
0FFFFFFC
07FEFFFC
01F87FF8
ENDCHAR
STARTCHAR dotlessi
ENCODING -1
SWIDTH 278 0
DWIDTH 9 0
BBX 3 16 3 0
BITMAP
E0
E0
E0
E0
E0
E0
E0
E0
E0
E0
E0
E0
E0
E0
E0
E0
ENDCHAR
STARTCHAR lslash
ENCODING -1
SWIDTH 278 0
DWIDTH 9 0
BBX 10 22 -1 0
BITMAP
0E00
0E00
0E00
0E00
0E00
0E00
0E00
0FC0
0FC0
1FC0
7E00
FE00
6E00
0E00
0E00
0E00
0E00
0E00
0E00
0E00
0E00
0E00
ENDCHAR
STARTCHAR oe
ENCODING -1
SWIDTH 833 0
DWIDTH 27 0
BBX 25 16 1 0
BITMAP
0FC0F800
1FE3FE00
3FFFFF00
7FFF8F00
F87F0780
F03E0780
F01FFF80
F01FFF80
F01FFF80
F01E0000
F03E0000
F83F0000
7FFFE000
7FF7FF80
3FE3FF80
0FC0FF80
ENDCHAR
STARTCHAR trademark
ENCODING -1
SWIDTH 1000 0
DWIDTH 32 0
BBX 30 13 1 9
BITMAP
FFE3E07C
FFE3E0FC
FFE3F0FC
0F03F0FC
0F03F1FC
0F03B9FC
0F03BBBC
0F03BBBC
0F039FBC
0F039F3C
0F038F3C
0F038E3C
0F038E3C
ENDCHAR
STARTCHAR minus
ENCODING -1
SWIDTH 600 0
DWIDTH 19 0
BBX 17 3 1 7
BITMAP
FFFF80
FFFF80
FFFF80
ENDCHAR
STARTCHAR Scaron
ENCODING -1
SWIDTH 611 0
DWIDTH 20 0
BBX 17 28 1 0
BITMAP
0E1C00
073800
03F800
01F000
00E000
000000
0FFE00
3FFE00
7FFE00
FFFC00
F80000
F80000
FC0000
7FE000
7FFC00
1FFE00
03FF00
001F80
000F80
000780
000780
000780
000780
001F80
7FFF00
FFFE00
FFFC00
FFF000
ENDCHAR
STARTCHAR Ydieresis
ENCODING -1
SWIDTH 556 0
DWIDTH 18 0
BBX 16 27 1 0
BITMAP
1C18
1E3C
1E3C
1C18
0000
E007
F00F
F00F
F00F
F81F
781E
7C3E
3E7C
1FF8
1FF0
0FE0
07C0
03C0
03C0
03C0
03C0
03C0
03C0
03C0
03C0
03C0
0380
ENDCHAR
STARTCHAR Zcaron
ENCODING -1
SWIDTH 500 0
DWIDTH 16 0
BBX 14 28 1 0
BITMAP
3870
1CF0
0EE0
07C0
0380
0000
7FF8
7FFC
7FFC
3FFC
003C
007C
0078
00F8
01F0
03E0
07C0
0FC0
1F80
3E00
7C00
7800
F800
F000
FFF8
FFFC
FFFC
7FFC
ENDCHAR
STARTCHAR scaron
ENCODING -1
SWIDTH 500 0
DWIDTH 16 0
BBX 14 22 1 0
BITMAP
3870
1CE0
0FC0
0780
0780
0000
1FF0
7FF8
FFF8
F800
F000
FE00
7FE0
3FF8
0FFC
007C
003C
003C
00FC
FFF8
FFF8
FFE0
ENDCHAR
STARTCHAR zcaron
ENCODING -1
SWIDTH 444 0
DWIDTH 14 0
BBX 13 22 1 0
BITMAP
70E0
39C0
1F80
0F80
0700
0000
7FF0
FFF0
FFF0
00F0
01F0
03E0
07C0
1F80
3F00
7E00
7C00
F800
F000
FFF8
FFF8
FFF0
ENDCHAR
STARTCHAR Delta
ENCODING -1
SWIDTH 709 0
DWIDTH 23 0
BBX 21 22 1 0
BITMAP
00F800
01F800
01FC00
01FC00
03DE00
039E00
079E00
078F00
070F00
0F0F80
0F0780
1E0780
1E03C0
3C03C0
3C01E0
3801E0
7801E0
7800F0
F000F0
FFFFF8
FFFFF8
FFFFF8
ENDCHAR
STARTCHAR Omega
ENCODING -1
SWIDTH 786 0
DWIDTH 25 0
BBX 23 22 1 0
BITMAP
00FE00
03FF80
0FFFE0
1F83F0
1F00F0
3E0078
3C007C
78003C
78003C
78003C
78003C
78003C
78003C
78003C
380038
3C0078
1C0070
0E00E0
0701C0
FF83FE
FFC7FE
FFC7FE
ENDCHAR
STARTCHAR pi
ENCODING -1
SWIDTH 641 0
DWIDTH 21 0
BBX 20 16 0 0
BITMAP
7FFFF0
FFFFF0
FFFFF0
0F0780
0F0780
0F0780
0F0780
0F0780
0E0780
1E0780
1E0780
1E0780
1E0780
1E0780
3C0780
3C0380
ENDCHAR
STARTCHAR Euro
ENCODING -1
SWIDTH 611 0
DWIDTH 20 0
BBX 19 22 0 0
BITMAP
00FFC0
03FFE0
07FFE0
0FFFC0
0F8000
1F0000
7FFC00
FFFE00
7FFC00
1E0000
1E0000
7FFC00
FFFE00
7FFC00
0F8000
0FC000
07E000
03F800
01FFE0
00FFE0
003FE0
000FC0
ENDCHAR
STARTCHAR estimated
ENCODING -1
SWIDTH 844 0
DWIDTH 27 0
BBX 25 22 1 0
BITMAP
007F0000
0380E000
06003000
18000800
38000C00
38000E00
78000F00
78000F00
F8000F00
F8000F80
F8000F80
FFFFFF80
F8000000
F8000000
78000000
78000000
38000000
38000000
18000C00
0C001000
03006000
00FF8000
ENDCHAR
STARTCHAR partialdiff
ENCODING -1
SWIDTH 610 0
DWIDTH 20 0
BBX 17 25 1 0
BITMAP
0FC000
3FF000
3FF800
387C00
203E00
001E00
000F00
000F00
000700
000780
07C780
1FF780
3FFF80
7C3F80
780F80
780F80
F00700
F00F00
F00F00
F01F00
781E00
7C3C00
3FF800
1FF000
0FC000
ENDCHAR
STARTCHAR product
ENCODING -1
SWIDTH 767 0
DWIDTH 25 0
BBX 23 24 1 -3
BITMAP
FFFFFE
FFFFFE
FFFFFE
1E01E0
1E01E0
1E01E0
1E01E0
1E01E0
1E01E0
1E01E0
1E01E0
1E01E0
1E01E0
1E01E0
1E01E0
1E01E0
1E01E0
1E01E0
1E01E0
1E01E0
1E01E0
1E01E0
1E01E0
1E01E0
ENDCHAR
STARTCHAR summation
ENCODING -1
SWIDTH 602 0
DWIDTH 19 0
BBX 18 24 1 -3
BITMAP
FFFF80
FFFF80
FFFF80
7C0000
3E0000
1E0000
0F0000
0F8000
07C000
03E000
01F000
00F800
00F000
01E000
03C000
078000
0F0000
1E0000
1E0000
3C0000
780000
FFFFC0
FFFFC0
FFFFC0
ENDCHAR
STARTCHAR uni2219
ENCODING -1
SWIDTH 305 0
DWIDTH 10 0
BBX 4 5 3 6
BITMAP
60
F0
F0
F0
E0
ENDCHAR
STARTCHAR radical
ENCODING -1
SWIDTH 626 0
DWIDTH 20 0
BBX 19 30 1 -4
BITMAP
000060
0000E0
0000E0
0000E0
0000C0
0001C0
0001C0
000180
000180
000380
000380
000300
000300
040700
3C0700
FC0600
FE0E00
0E0E00
0E0E00
0F0C00
071C00
079C00
039C00
039800
03F800
01F800
01F800
01F000
00F000
00F000
ENDCHAR
STARTCHAR infinity
ENCODING -1
SWIDTH 799 0
DWIDTH 26 0
BBX 22 11 2 3
BITMAP
1E01E0
7F87F8
E1CE38
C0FC1C
C0780C
C0700C
C0780C
C0DC1C
E3CE38
7F87F0
1E01E0
ENDCHAR
STARTCHAR integral
ENCODING -1
SWIDTH 395 0
DWIDTH 13 0
BBX 12 32 0 -5
BITMAP
0020
01F0
03F0
0780
0700
0700
0700
0700
0F00
0F00
0700
0700
0700
0700
0700
0700
0700
0700
0700
0700
0700
0700
0700
0700
0700
0700
0700
0700
0F00
7E00
7E00
F800
ENDCHAR
STARTCHAR approxequal
ENCODING -1
SWIDTH 590 0
DWIDTH 19 0
BBX 16 11 1 3
BITMAP
1F01
3F83
73E7
E0FE
403C
0000
1F01
3F83
73E7
E0FE
403C
ENDCHAR
STARTCHAR notequal
ENCODING -1
SWIDTH 590 0
DWIDTH 19 0
BBX 15 17 2 0
BITMAP
0020
0060
0060
00C0
FFFE
FFFE
0180
0180
0300
0300
0700
FFFE
FFFE
0C00
0C00
1800
0800
ENDCHAR
STARTCHAR lessequal
ENCODING -1
SWIDTH 590 0
DWIDTH 19 0
BBX 15 20 2 0
BITMAP
0002
000E
003E
00F8
03E0
1F80
7C00
F000
C000
F800
3E00
0F80
03E0
00F8
003E
000E
0000
0000
FFFE
FFFE
ENDCHAR
STARTCHAR greaterequal
ENCODING -1
SWIDTH 590 0
DWIDTH 19 0
BBX 15 20 2 0
BITMAP
8000
E000
F800
3E00
0F80
03F0
007C
001E
0006
003E
00F8
03E0
0F80
3E00
F800
E000
0000
0000
FFFE
FFFE
ENDCHAR
STARTCHAR lozenge
ENCODING -1
SWIDTH 626 0
DWIDTH 20 0
BBX 16 25 2 -2
BITMAP
03C0
03C0
07E0
07E0
0E70
0E78
1C38
3C3C
381C
781E
700E
E00F
E007
F00F
700E
781E
381C
3C3C
1C38
0E70
0E70
07E0
07E0
03C0
03C0
ENDCHAR
STARTCHAR uni02C9
ENCODING -1
SWIDTH 278 0
DWIDTH 9 0
BBX 9 3 0 19
BITMAP
FF80
FF80
FF80
ENDCHAR
STARTCHAR uni03A9
ENCODING -1
SWIDTH 786 0
DWIDTH 25 0
BBX 23 22 1 0
BITMAP
00FE00
03FF80
0FFFE0
1F83F0
1F00F0
3E0078
3C007C
78003C
78003C
78003C
78003C
78003C
78003C
78003C
380038
3C0078
1C0070
0E00E0
0701C0
FF83FE
FFC7FE
FFC7FE
ENDCHAR
STARTCHAR afii61289
ENCODING -1
SWIDTH 552 0
DWIDTH 18 0
BBX 16 24 1 0
BITMAP
03E0
07F0
0FF8
1E38
1E18
1E18
1C18
1C38
1C38
1C70
1C70
1CE0
1DC0
1F80
1F80
1E00
3C00
FC00
FE02
1E07
1F0E
0FFE
0FF8
03F0
ENDCHAR
STARTCHAR uni03BC
ENCODING -1
SWIDTH 556 0
DWIDTH 18 0
BBX 14 23 2 -7
BITMAP
6018
F03C
F03C
F03C
F03C
F03C
F03C
F03C
F03C
F03C
F03C
F07C
FDFC
FFFC
FFFC
FF18
F000
F000
F000
F000
F000
F000
6000
ENDCHAR
STARTCHAR uni2215
ENCODING -1
SWIDTH 167 0
DWIDTH 5 0
BBX 17 22 -6 0
BITMAP
000300
000780
000F80
000F00
001E00
003E00
003C00
007800
00F800
00F000
01E000
03C000
07C000
078000
0F0000
1F0000
1E0000
3C0000
7C0000
780000
F00000
600000
ENDCHAR
ENDFONT
